<?xml version="1.0" encoding="utf-8"?>
<!-- Generator: Adobe Illustrator 16.0.0, SVG Export Plug-In . SVG Version: 6.00 Build 0)  -->
<!DOCTYPE svg PUBLIC "-//W3C//DTD SVG 1.1//EN" "http://www.w3.org/Graphics/SVG/1.1/DTD/svg11.dtd">
<svg version="1.1" xmlns="http://www.w3.org/2000/svg" xmlns:xlink="http://www.w3.org/1999/xlink" x="0px" y="0px" width="108px" height="39px" viewBox="-689.56 491.457 108 39" enable-background="new -689.56 491.457 108 39" xml:space="preserve">
<title>Html Academy logo</title>
<path d="M-644.977,519.883c0.188-0.01,0.374-0.048,0.552-0.11v1.41c-0.377,0.152-0.777,0.227-1.181,0.223
	c-0.699,0.071-1.367-0.334-1.665-1.007c-0.887,0.761-2,1.163-3.141,1.137c-1.514,0-2.913-0.876-2.913-2.7
	c0-2.258,1.979-2.953,3.711-2.953c0.731,0.012,1.458,0.099,2.17,0.263v-0.315c0-1.097-0.761-1.874-2.189-1.874
	c-1.033,0.002-2.054,0.233-2.998,0.676v-1.805c1.026-0.371,2.103-0.57,3.188-0.585c2.359,0,3.808,1.192,3.808,3.862v3.166
	c-0.027,0.315,0.19,0.595,0.49,0.626C-645.088,519.9-645.031,519.896-644.977,519.883z M-651.41,518.686
	c0.057,0.787,0.709,1.373,1.453,1.313c0.035-0.004,0.072-0.009,0.107-0.014c0.897,0.015,1.764-0.348,2.408-1.009v-1.521
	c-0.594-0.134-1.2-0.208-1.808-0.221c-1.048,0.01-2.16,0.353-2.16,1.461V518.686z"/>
<path d="M-639.057,512.222c0.898-0.021,1.786,0.212,2.571,0.677v1.803c-0.682-0.484-1.484-0.741-2.305-0.735
	c-1.513-0.135-2.843,1.059-2.969,2.661c-0.126,1.604,0.998,3.012,2.512,3.146c0.152,0.014,0.305,0.014,0.457,0
	c0.851-0.004,1.686-0.236,2.428-0.676v1.815c-0.865,0.421-1.808,0.628-2.76,0.604c-2.318,0.169-4.325-1.686-4.485-4.14
	c-0.009-0.146-0.012-0.291-0.008-0.437c-0.078-2.525,1.794-4.64,4.18-4.722C-639.31,512.214-639.183,512.215-639.057,512.222z"/>
<path d="M-626.893,519.883c0.188-0.01,0.374-0.048,0.552-0.11v1.41c-0.377,0.152-0.777,0.227-1.179,0.223
	c-0.701,0.071-1.368-0.334-1.667-1.007c-0.888,0.761-2,1.163-3.141,1.137c-1.514,0-2.913-0.876-2.913-2.7
	c0-2.258,1.979-2.953,3.713-2.953c0.729,0.012,1.456,0.099,2.169,0.263v-0.315c0-1.097-0.761-1.874-2.189-1.874
	c-1.033,0.002-2.054,0.233-2.998,0.676v-1.805c1.026-0.371,2.103-0.57,3.188-0.585c2.362,0,3.807,1.192,3.807,3.862v3.166
	c-0.027,0.315,0.191,0.595,0.49,0.626C-627.004,519.9-626.947,519.896-626.893,519.883z M-633.327,518.686
	c0.058,0.787,0.71,1.373,1.454,1.313c0.036-0.004,0.072-0.009,0.107-0.014c0.897,0.015,1.764-0.348,2.408-1.009v-1.521
	c-0.595-0.134-1.2-0.208-1.808-0.221c-1.056,0.01-2.161,0.353-2.161,1.461V518.686z"/>
<path d="M-616.585,508.422v12.863h-1.675v-1.402c-0.752,1.059-1.938,1.666-3.188,1.633
	c-2.423-0.168-4.258-2.386-4.099-4.953c0.145-2.329,1.898-4.188,4.099-4.341c1.145-0.04,2.246,0.467,2.999,1.381v-5.181h1.902
	H-616.585z M-621.116,513.946c-1.524,0.003-2.758,1.315-2.754,2.929c0.003,1.61,1.235,2.915,2.754,2.918
	c1.158,0.01,2.208-0.725,2.656-1.854v-2.147C-618.923,514.674-619.964,513.95-621.116,513.946z"/>
<path d="M-610.57,512.222c3.312,0,4.455,2.832,3.921,5.382h-6.263c0.209,1.584,1.666,2.239,3.189,2.239
	c0.912,0.002,1.813-0.21,2.636-0.625v1.694c-0.943,0.426-1.963,0.633-2.988,0.604c-2.551,0-4.759-1.542-4.759-4.646
	c-0.117-2.441,1.658-4.52,3.962-4.642C-610.771,512.222-610.67,512.22-610.57,512.222z M-610.485,513.855
	c-1.252-0.102-2.346,0.89-2.441,2.217c-0.001,0.021-0.003,0.041-0.004,0.063h4.616c0.112-1.142-0.67-2.163-1.748-2.282
	C-610.202,513.838-610.344,513.838-610.485,513.855z"/>
<path d="M-604.754,521.285v-8.822h1.646v1.101c0.709-0.839,1.717-1.328,2.779-1.342
	c1.045-0.07,2.042,0.472,2.599,1.412c0.751-0.867,1.801-1.377,2.912-1.412c1.686-0.07,3.106,1.322,3.172,3.107
	c0.005,0.147,0.001,0.295-0.012,0.441v5.515h-1.903v-5.456c0.089-0.922-0.545-1.75-1.419-1.846
	c-0.075-0.009-0.152-0.011-0.228-0.007c-0.821,0.055-1.575,0.491-2.065,1.188c0,0.201,0,0.406,0,0.606v5.515h-1.904v-5.456
	c0.09-0.922-0.545-1.75-1.417-1.846c-0.076-0.009-0.153-0.011-0.229-0.007c-0.893,0.076-1.704,0.576-2.208,1.36v5.955h-1.904
	L-604.754,521.285z"/>
<path d="M-583.463,512.463h1.903l-3.902,10.012c-0.904,2.297-2.083,3.024-3.35,3.024
	c-0.37-0.005-0.736-0.058-1.095-0.152v-1.673c0.274,0.088,0.561,0.133,0.847,0.131c0.904,0,1.58-0.676,2.065-2.017l0.171-0.442
	l-3.959-8.891h2.027l2.855,6.652L-583.463,512.463z"/>
<path d="M-650.859,492.979v5.041c0.71-0.767,1.679-1.202,2.693-1.209c1.789-0.114,3.327,1.33,3.435,3.225
	c0.007,0.124,0.008,0.249,0.002,0.372v5.455h-1.904v-5.203c0.106-1.051-0.611-1.995-1.605-2.109c-0.1-0.011-0.199-0.015-0.299-0.008
	c-0.955,0.062-1.821,0.611-2.322,1.473v5.848h-1.904v-12.884H-650.859L-650.859,492.979z"/>
<path d="M-639.656,493.875v3.146h3.017v1.723h-3.017v4.032c0,1.159,0.504,1.542,1.58,1.542
	c0.578-0.001,1.149-0.121,1.685-0.352v1.692c-0.721,0.259-1.477,0.39-2.237,0.383c-1.398,0.183-2.672-0.867-2.845-2.349
	c-0.022-0.183-0.024-0.37-0.011-0.554v-4.416h-1.523v-1.723h1.495v-2.661L-639.656,493.875z"/>
<path d="M-634.26,505.842v-8.82h1.647v1.098c0.709-0.838,1.718-1.323,2.779-1.341
	c1.045-0.068,2.043,0.474,2.598,1.411c0.752-0.867,1.802-1.374,2.913-1.411c1.686-0.068,3.106,1.321,3.172,3.106
	c0.006,0.148,0.002,0.293-0.012,0.442v5.515h-1.904v-5.453c0.09-0.927-0.544-1.754-1.417-1.849
	c-0.077-0.009-0.152-0.012-0.229-0.008c-0.819,0.059-1.575,0.491-2.065,1.19c0,0.201,0,0.403,0,0.604v5.515h-1.902v-5.453
	c0.089-0.927-0.545-1.754-1.419-1.849c-0.076-0.009-0.152-0.012-0.228-0.008c-0.893,0.078-1.705,0.577-2.208,1.361v5.958h-1.904
	L-634.26,505.842z"/>
<rect x="-618.441" y="492.968" width="1.856" height="12.863"/>
<path d="M-674.864,491.457h-0.152l-14.544,1.612v28.223l14.544,9.165l14.543-9.165v-28.223L-674.864,491.457z
	 M-662.377,520.135l-12.639,7.964l-12.64-7.964v-11.573l12.583,7.934v1.443l-8.633-5.444v1.392l8.671,5.513v1.472l-8.662-5.463
	v1.393l8.671,5.513l0,0l8.746-5.544v-1.403l0,0v-4.555l3.902-2.47v11.765V520.135z M-662.377,506.871l-3.473,2.155l0,0l-1.598,1.008
	l-7.615-4.799v1.393l6.511,4.102h-0.057l-0.143,0.091l-0.951,0.575l-5.369-3.388v1.393l4.236,2.671l-1,0.706l0,0l-3.198-2.016v1.389
	l2.104,1.313l-2.142,1.359l-12.525-7.882l12.535-7.985l0,0L-662.377,506.871z M-662.377,505.467l-12.706-7.933l0,0l-12.563,7.923
	v-10.584l12.64-1.4l12.64,1.4v10.594H-662.377z"/>
</svg>
